<?xml version="1.0" encoding="UTF-8" standalone="no"?>
<!-- Created with Inkscape (http://www.inkscape.org/) -->

<svg
   width="210mm"
   height="297mm"
   viewBox="0 0 210 297"
   version="1.1"
   id="svg5"
   inkscape:version="1.1.2 (0a00cf5339, 2022-02-04)"
   sodipodi:docname="Quire-logo-sourcefile.svg"
   xml:space="preserve"
   xmlns:inkscape="http://www.inkscape.org/namespaces/inkscape"
   xmlns:sodipodi="http://sodipodi.sourceforge.net/DTD/sodipodi-0.dtd"
   xmlns="http://www.w3.org/2000/svg"
   xmlns:svg="http://www.w3.org/2000/svg"><sodipodi:namedview
     id="namedview7"
     pagecolor="#ffffff"
     bordercolor="#000000"
     borderopacity="0.25"
     inkscape:showpageshadow="2"
     inkscape:pageopacity="0.0"
     inkscape:pagecheckerboard="0"
     inkscape:deskcolor="#d1d1d1"
     inkscape:document-units="mm"
     showgrid="false"
     inkscape:zoom="1"
     inkscape:cx="393"
     inkscape:cy="295.5"
     inkscape:window-width="1846"
     inkscape:window-height="1016"
     inkscape:window-x="0"
     inkscape:window-y="0"
     inkscape:window-maximized="1"
     inkscape:current-layer="layer1"
     inkscape:pageshadow="2" /><defs
     id="defs2" /><g
     inkscape:label="Layer 1"
     inkscape:groupmode="layer"
     id="layer1"><text
       xml:space="preserve"
       style="font-style:normal;font-variant:normal;font-weight:normal;font-stretch:normal;font-size:50.8px;font-family:'Times New Roman';-inkscape-font-specification:'Times New Roman, Normal';font-variant-ligatures:normal;font-variant-caps:normal;font-variant-numeric:normal;font-variant-east-asian:normal;text-align:center;text-anchor:middle;fill:#3a286d;fill-opacity:1;stroke:none;stroke-width:0.265;stroke-miterlimit:4;stroke-dasharray:none"
       x="33.326805"
       y="52.198112"
       id="text256"><tspan
         sodipodi:role="line"
         id="tspan254"
         style="font-style:normal;font-variant:normal;font-weight:normal;font-stretch:normal;font-size:50.8px;font-family:'Times New Roman';-inkscape-font-specification:'Times New Roman, Normal';font-variant-ligatures:normal;font-variant-caps:normal;font-variant-numeric:normal;font-variant-east-asian:normal;fill:#3a286d;fill-opacity:1;stroke:none;stroke-width:0.265;stroke-miterlimit:4;stroke-dasharray:none"
         x="33.326805"
         y="52.198112">O</tspan></text><text
       xml:space="preserve"
       style="font-style:normal;font-variant:normal;font-weight:normal;font-stretch:normal;font-size:28.2222px;font-family:'Times New Roman';-inkscape-font-specification:'Times New Roman, Normal';font-variant-ligatures:normal;font-variant-caps:normal;font-variant-numeric:normal;font-variant-east-asian:normal;text-align:center;text-anchor:middle;fill:#3a286d;fill-opacity:1;stroke:none;stroke-width:0.264999;stroke-miterlimit:4;stroke-dasharray:none;stroke-opacity:1"
       x="73.602257"
       y="52.949417"
       id="text19615"><tspan
         sodipodi:role="line"
         id="tspan19613"
         style="font-style:normal;font-variant:normal;font-weight:normal;font-stretch:normal;font-size:28.2222px;font-family:'Times New Roman';-inkscape-font-specification:'Times New Roman, Normal';font-variant-ligatures:normal;font-variant-caps:normal;font-variant-numeric:normal;font-variant-east-asian:normal;stroke-width:0.265"
         x="73.602257"
         y="52.949417">uire</tspan></text><g
       id="g841"
       transform="translate(-62.480307,-71.723657)"><path
         id="path246"
         style="fill:#ffffff;fill-opacity:1;stroke:#000000;stroke-width:0.433451;stroke-miterlimit:4;stroke-dasharray:none;stroke-opacity:1"
         d="m 97.306074,109.57271 c -1.118802,0.0194 -2.688782,1.17052 -2.407026,2.09977 1.471186,4.85212 11.054592,10.80385 14.198902,9.56754 l 7.65036,3.43001 -0.97001,-0.85519 -6.2422,-3.17135 c -0.28693,-3.10758 -1.57204,-3.37737 -6.22888,-6.94063 -2.44178,-1.86837 -3.25798,-2.43672 -5.326948,-3.94625 -0.181827,-0.13266 -0.416013,-0.18839 -0.674198,-0.1839 z" /><path
         style="fill:#000009;fill-opacity:1;stroke:none;stroke-width:0.0617165;stroke-opacity:1"
         d="m 109.5361,120.64349 c -7.01736,-3.70098 -9.795484,-5.14359 -14.070832,-10.26187 3.799352,5.38092 8.763942,8.05313 13.847412,10.6045 0.19941,-0.31534 0.0138,-0.0261 0.22342,-0.34263 z"
         id="path5105"
         sodipodi:nodetypes="cccc" /><g
         id="g24738"
         transform="translate(-4.389756,1.94686)"><path
           id="path22294"
           style="fill:#000000;fill-opacity:1;stroke:none;stroke-width:0.264999;stroke-miterlimit:4;stroke-dasharray:none;stroke-opacity:1"
           d="m 102.44927,111.49951 c -0.0358,-0.0367 -0.0718,-0.0731 -0.10748,-0.11007 -0.0661,-0.0685 -0.13179,-0.1376 -0.19741,-0.20722 -0.0656,-0.0696 -0.13123,-0.14012 -0.19637,-0.21084 -0.0651,-0.0707 -0.13016,-0.14159 -0.19482,-0.21343 -0.0647,-0.0718 -0.1291,-0.14458 -0.19327,-0.21756 -0.0642,-0.073 -0.12806,-0.14652 -0.19172,-0.22065 -0.0637,-0.0741 -0.12701,-0.14846 -0.19017,-0.22376 -0.0632,-0.0753 -0.12598,-0.1514 -0.18862,-0.22789 -0.0626,-0.0765 -0.12495,-0.1538 -0.18706,-0.23151 -0.0621,-0.0777 -0.12395,-0.15567 -0.18552,-0.23462 -0.0616,-0.0789 -0.12294,-0.15854 -0.18397,-0.23874 -0.061,-0.0802 -0.12193,-0.16141 -0.18242,-0.24288 -0.0605,-0.0815 -0.12042,-0.16322 -0.18035,-0.24598 -0.0567,-0.0783 -0.112794,-0.15773 -0.168981,-0.2372 -0.401611,0.42585 -0.634447,0.97688 -0.5333,1.54823 1.037881,0.78138 1.727891,1.0635 3.081461,1.51412 z" /><path
           id="path23904"
           style="fill:#ffffff;fill-opacity:1;stroke:none;stroke-width:0.264999;stroke-miterlimit:4;stroke-dasharray:none;stroke-opacity:1"
           d="m 102.80326,111.56772 c -0.0871,-0.0827 -0.17421,-0.16561 -0.26149,-0.25063 -0.12171,-0.11857 -0.2435,-0.23937 -0.36586,-0.36277 -0.12237,-0.12339 -0.2451,-0.24917 -0.36846,-0.37775 -0.12336,-0.12858 -0.24736,-0.25965 -0.37207,-0.39378 -0.12471,-0.13412 -0.25031,-0.2713 -0.37672,-0.41134 -0.12641,-0.14004 -0.25343,-0.28312 -0.38189,-0.42943 -0.12845,-0.14631 -0.25827,-0.2956 -0.38912,-0.44855 -0.12735,-0.14885 -0.25556,-0.30187 -0.385507,-0.45734 -3.33e-4,3.5e-4 -7.01e-4,6.8e-4 -10e-4,10e-4 0.05619,0.0795 0.112287,0.15891 0.168977,0.2372 0.0599,0.0828 0.11986,0.16451 0.18035,0.24598 0.0605,0.0815 0.12138,0.16268 0.18242,0.24288 0.061,0.0802 0.12239,0.1598 0.18397,0.23874 0.0616,0.0789 0.12341,0.1569 0.18552,0.23462 0.0621,0.0777 0.12443,0.15501 0.18706,0.23151 0.0626,0.0765 0.12547,0.15259 0.18862,0.22789 0.0632,0.0753 0.12651,0.14963 0.19017,0.22376 0.0637,0.0741 0.12756,0.14768 0.19172,0.22065 0.0642,0.073 0.12862,0.14573 0.19327,0.21756 0.0647,0.0718 0.12968,0.1427 0.19482,0.21343 0.0651,0.0707 0.13075,0.14121 0.19637,0.21084 0.0656,0.0696 0.13132,0.13867 0.19741,0.20722 0.0357,0.037 0.0717,0.0734 0.10748,0.11007 0.11416,0.038 0.23131,0.077 0.35554,0.11782 -5.7e-4,-0.0173 -0.001,-0.0326 -0.002,-0.0496 z" /><path
           id="path23902"
           style="fill:#000000;fill-opacity:1;stroke:none;stroke-width:0.264999;stroke-miterlimit:4;stroke-dasharray:none;stroke-opacity:1"
           d="m 101.69583,107.62585 c -0.65458,0.001 -1.33436,0.32381 -1.793687,0.81028 0.129947,0.15547 0.258157,0.30849 0.385507,0.45734 0.13085,0.15295 0.26067,0.30224 0.38912,0.44855 0.12846,0.14631 0.25548,0.28939 0.38189,0.42943 0.12641,0.14004 0.25201,0.27722 0.37672,0.41134 0.12471,0.13413 0.24871,0.2652 0.37207,0.39378 0.12336,0.12858 0.24609,0.25436 0.36846,0.37775 0.12236,0.1234 0.24415,0.2442 0.36586,0.36277 0.0873,0.085 0.17439,0.16793 0.26149,0.25063 -0.0504,-1.57486 -0.022,-2.00755 0.0305,-3.52898 -0.32934,-0.28892 -0.72866,-0.41363 -1.13792,-0.41289 z" /></g></g><text
       xml:space="preserve"
       style="font-style:normal;font-variant:normal;font-weight:normal;font-stretch:normal;font-size:18.7811px;font-family:'Times New Roman';-inkscape-font-specification:'Times New Roman, Normal';font-variant-ligatures:normal;font-variant-caps:normal;font-variant-numeric:normal;font-variant-east-asian:normal;text-align:center;text-anchor:middle;fill:#3a286d;fill-opacity:1;stroke:none;stroke-width:0.0979722;stroke-miterlimit:4;stroke-dasharray:none"
       x="25.636688"
       y="92.169632"
       id="text256-8"><tspan
         sodipodi:role="line"
         id="tspan254-5"
         style="font-style:normal;font-variant:normal;font-weight:normal;font-stretch:normal;font-size:18.7811px;font-family:'Times New Roman';-inkscape-font-specification:'Times New Roman, Normal';font-variant-ligatures:normal;font-variant-caps:normal;font-variant-numeric:normal;font-variant-east-asian:normal;fill:#3a286d;fill-opacity:1;stroke:none;stroke-width:0.0979722;stroke-miterlimit:4;stroke-dasharray:none"
         x="25.636688"
         y="92.169632">O</tspan></text><g
       id="g4423"
       transform="translate(-60.199799,-57.722444)"><path
         id="path246-1"
         style="fill:#ffffff;fill-opacity:1;stroke:#000000;stroke-width:0.421;stroke-miterlimit:4;stroke-dasharray:none;stroke-opacity:1"
         d="m 84.910379,142.84196 c -0.569699,0.01 -1.369141,0.59603 -1.22567,1.06921 0.749136,2.47072 5.629055,5.50138 7.230153,4.87184 0.223108,-0.30376 0,0 0.223108,-0.30376 -0.146106,-1.58239 -0.80049,-1.71977 -3.171777,-3.5342 -1.243367,-0.95138 -1.65898,-1.24079 -2.712509,-2.00945 -0.09259,-0.0675 -0.211836,-0.0959 -0.343305,-0.0936 z"
         sodipodi:nodetypes="csccsccc" /><path
         style="fill:#000009;fill-opacity:1;stroke:none;stroke-width:0.0314264;stroke-opacity:1"
         d="m 91.207192,148.3759 c -3.573275,-1.88455 -5.057132,-2.51579 -7.23416,-5.12204 1.934649,2.73999 4.462643,4.10069 7.051172,5.39986 0.10154,-0.16057 0.07622,-0.11665 0.182988,-0.27782 z"
         id="path5105-1"
         sodipodi:nodetypes="cccc" /><path
         id="path23902-4"
         style="fill:#000000;fill-opacity:1;stroke:none;stroke-width:0.134939;stroke-miterlimit:4;stroke-dasharray:none;stroke-opacity:1"
         d="m 84.910379,142.84196 c -0.333315,5.1e-4 -0.679463,0.16488 -0.913354,0.4126 0.416393,0.5935 0.939265,1.13832 1.45718,1.63701 -0.02566,-0.80193 0.0089,-1.06465 0.03561,-1.83937 -0.167702,-0.14712 -0.371037,-0.21062 -0.579436,-0.21024 z m -0.913876,0.41316 c -0.204502,0.21685 -0.323063,0.49743 -0.271559,0.78837 0.528494,0.39788 1.040016,0.61863 1.729261,0.84808 -0.583691,-0.426 -1.016258,-1.14937 -1.457702,-1.63645 z"
         sodipodi:nodetypes="ccccccccc" /><path
         style="fill:#000000;stroke:#000000;stroke-width:0.465;stroke-linecap:round;stroke-miterlimit:4;stroke-dasharray:none"
         d="m 91.094413,148.64406 2.621593,1.39761"
         id="path1812"
         sodipodi:nodetypes="cc" /></g><text
       xml:space="preserve"
       style="font-style:normal;font-variant:normal;font-weight:normal;font-stretch:normal;font-size:5.64444px;font-family:monospace;-inkscape-font-specification:'monospace, Normal';font-variant-ligatures:normal;font-variant-caps:normal;font-variant-numeric:normal;font-variant-east-asian:normal;text-align:center;text-anchor:middle;fill:#000000;fill-opacity:1;stroke:none;stroke-width:0.465;stroke-linecap:round;stroke-miterlimit:4;stroke-dasharray:none"
       x="157.59047"
       y="53.370972"
       id="text6933"><tspan
         sodipodi:role="line"
         id="tspan6931"
         style="font-style:normal;font-variant:normal;font-weight:normal;font-stretch:normal;font-size:5.64444px;font-family:monospace;-inkscape-font-specification:'monospace, Normal';font-variant-ligatures:normal;font-variant-caps:normal;font-variant-numeric:normal;font-variant-east-asian:normal;fill:#000000;fill-opacity:1;stroke:none;stroke-width:0.465"
         x="157.59047"
         y="53.370972">Large logo element</tspan></text><text
       xml:space="preserve"
       style="font-style:normal;font-variant:normal;font-weight:normal;font-stretch:normal;font-size:5.64444px;font-family:monospace;-inkscape-font-specification:'monospace, Normal';font-variant-ligatures:normal;font-variant-caps:normal;font-variant-numeric:normal;font-variant-east-asian:normal;text-align:center;text-anchor:middle;fill:#000000;fill-opacity:1;stroke:none;stroke-width:0.465;stroke-linecap:round;stroke-miterlimit:4;stroke-dasharray:none"
       x="167.45367"
       y="91.273666"
       id="text6933-4"><tspan
         sodipodi:role="line"
         id="tspan6931-5"
         style="font-style:normal;font-variant:normal;font-weight:normal;font-stretch:normal;font-size:5.64444px;font-family:monospace;-inkscape-font-specification:'monospace, Normal';font-variant-ligatures:normal;font-variant-caps:normal;font-variant-numeric:normal;font-variant-east-asian:normal;fill:#000000;fill-opacity:1;stroke:none;stroke-width:0.465"
         x="167.45367"
         y="91.273666">Small icons</tspan></text><circle
       id="path7999"
       style="fill:#000000;stroke:#000000;stroke-width:0.264583"
       cx="148.24677"
       cy="59.402317"
       r="0.015484386" /><circle
       id="path8001"
       style="fill:#000000;stroke:#000000;stroke-width:0.264583"
       cx="148.24677"
       cy="59.402317"
       r="0.015484386" /><text
       xml:space="preserve"
       style="font-style:normal;font-variant:normal;font-weight:normal;font-stretch:normal;font-size:5.64444px;font-family:monospace;-inkscape-font-specification:'monospace, Normal';font-variant-ligatures:normal;font-variant-caps:normal;font-variant-numeric:normal;font-variant-east-asian:normal;text-align:start;text-anchor:start;fill:#000000;fill-opacity:1;stroke:none;stroke-width:0.465;stroke-linecap:round;stroke-miterlimit:4;stroke-dasharray:none"
       x="18.132946"
       y="127.08028"
       id="text6933-4-1"><tspan
         sodipodi:role="line"
         id="tspan6931-5-1"
         style="font-style:normal;font-variant:normal;font-weight:normal;font-stretch:normal;font-size:5.64444px;font-family:monospace;-inkscape-font-specification:'monospace, Normal';font-variant-ligatures:normal;font-variant-caps:normal;font-variant-numeric:normal;font-variant-east-asian:normal;text-align:start;text-anchor:start;fill:#000000;fill-opacity:1;stroke:none;stroke-width:0.465"
         x="18.132946"
         y="127.08028">Font: Times New Roman</tspan><tspan
         sodipodi:role="line"
         style="font-style:normal;font-variant:normal;font-weight:normal;font-stretch:normal;font-size:5.64444px;font-family:monospace;-inkscape-font-specification:'monospace, Normal';font-variant-ligatures:normal;font-variant-caps:normal;font-variant-numeric:normal;font-variant-east-asian:normal;text-align:start;text-anchor:start;fill:#000000;fill-opacity:1;stroke:none;stroke-width:0.465"
         x="18.132946"
         y="134.13583"
         id="tspan6842">RGBA: #3a286dff</tspan></text></g></svg>
